<svg xmlns="http://www.w3.org/2000/svg" viewBox="0 0 533.15 599.49"><defs><style>.cls-1{fill:#00a3a3;}.cls-2{fill:#6c9;}.cls-3{fill:#099;}</style></defs><g id="Camada_2" data-name="Camada 2"><g id="Camada_1-2" data-name="Camada 1"><path class="cls-1" d="M253.09,365.71V307.23L84.19,209.75,0,161.23V427.79c0,14.15,10,31.36,22.21,38.44l62,35.77L253.1,599.49V541L84.23,443.54V385.1l168.9,97.48V424.15L84.23,326.66V268.23Z"/><path class="cls-2" d="M330.83,278l-50.59,29.2-.14,195L280,599.42l50.6-29.19L381.21,541,510.8,466.27C523.06,459.2,533,442,533,427.83V356.27l.14-195-50.54,29.19-.14,195-50.6,29.19.15-195h0l-50.6,29.19-.14,195L330.69,473Z"/><path class="cls-2" d="M266.35,35.08A249.62,249.62,0,0,1,483,159.48l36.64-21.25L290,6.37l-1.6-.91a47.15,47.15,0,0,0-44.26.11l-1.47.86-229.09,133,36.74,21.1a249.64,249.64,0,0,1,216-125.45"/><path class="cls-3" d="M266.56,92.83a190.85,190.85,0,0,0-165.42,95.58l50.59,29.21a132.52,132.52,0,0,1,229.66,0L432,188.41A190.85,190.85,0,0,0,266.56,92.83"/><path class="cls-2" d="M266.56,209.88a73.89,73.89,0,0,0-64.05,37.05l64.07,37,64.06-37a73.85,73.85,0,0,0-64.06-37.05"/></g></g></svg>